<svg width="54" height="54" viewBox="0 0 54 54" fill="none" xmlns="http://www.w3.org/2000/svg">
<rect x="14.7778" y="9" width="3.38898" height="6.90347" rx="1.69449" stroke="#0090DF"/>
<rect x="21.5559" y="9.00006" width="3.38898" height="6.90347" rx="1.69449" stroke="#0090DF"/>
<rect x="28.3337" y="9.00006" width="3.38898" height="6.90347" rx="1.69449" stroke="#0090DF"/>
<rect x="35.1121" y="9.00006" width="3.38898" height="6.90347" rx="1.69449" stroke="#0090DF"/>
<path fill-rule="evenodd" clip-rule="evenodd" d="M24.9449 12.2635V13.2635H28.3339V12.2635H24.9449ZM31.7228 12.2635V13.2635H35.1121V12.2635H31.7228ZM38.5011 12.2635V13.2635H41.2787C42.9356 13.2635 44.2787 14.6066 44.2787 16.2635V41.0236C44.2787 42.6804 42.9356 44.0236 41.2787 44.0236H12C10.3432 44.0236 9 42.6804 9 41.0236V16.2635C9 14.6066 10.3431 13.2635 12 13.2635H14.7779V12.2635H12C9.79086 12.2635 8 14.0543 8 16.2635V41.0236C8 43.2327 9.79087 45.0236 12 45.0236H41.2787C43.4879 45.0236 45.2787 43.2327 45.2787 41.0236V16.2635C45.2787 14.0543 43.4879 12.2635 41.2787 12.2635H38.5011ZM18.1669 12.2635V13.2635H21.5559V12.2635H18.1669Z" fill="#0090DF"/>
<rect x="14.1482" y="33.0974" width="4.64829" height="4.64829" rx="0.5" stroke="#0090DF"/>
<rect x="14.1482" y="25.1898" width="4.64829" height="4.64829" rx="0.5" stroke="#0090DF"/>
<rect x="24.3152" y="33.0974" width="4.64829" height="4.64829" rx="0.5" stroke="#0090DF"/>
<rect x="24.3152" y="25.1898" width="4.64829" height="4.64829" rx="0.5" stroke="#0090DF"/>
<rect x="34.4822" y="33.0974" width="4.64829" height="4.64829" rx="0.5" stroke="#0090DF"/>
<path d="M34.5471 26.949L36.8064 28.6435L39.0658 25.8193" stroke="#0090DF" stroke-linecap="round"/>
<line x1="8" y1="19.6711" x2="44.1491" y2="19.6711" stroke="#0090DF"/>
</svg>
