<svg width="54" height="54" viewBox="0 0 54 54" fill="none" xmlns="http://www.w3.org/2000/svg">
<path d="M37.6254 34.0569L37.9028 33.6409L37.7693 33.5519L37.6089 33.5572L37.6254 34.0569ZM42.5058 37.3105L42.2284 37.7265L43.0058 38.2447V37.3105H42.5058ZM42.5058 32.8175L42.2813 32.3707L42.0058 32.5091V32.8175H42.5058ZM12.1594 22.2931C12.1594 16.0686 17.2053 11.0227 23.4298 11.0227V10.0227C16.6531 10.0227 11.1594 15.5163 11.1594 22.2931H12.1594ZM23.4298 33.5635C17.2054 33.5635 12.1594 28.5175 12.1594 22.2931H11.1594C11.1594 29.0698 16.6531 34.5635 23.4298 34.5635V33.5635ZM37.2296 33.5635H23.4298V34.5635H37.2296V33.5635ZM37.6089 33.5572C37.483 33.5614 37.3565 33.5635 37.2296 33.5635V34.5635C37.3676 34.5635 37.505 34.5612 37.642 34.5567L37.6089 33.5572ZM42.7831 36.8945L37.9028 33.6409L37.3481 34.4729L42.2284 37.7265L42.7831 36.8945ZM42.0058 32.8175V37.3105H43.0058V32.8175H42.0058ZM48.4999 22.2931C48.4999 26.7004 45.9702 30.5177 42.2813 32.3707L42.7302 33.2643C46.7439 31.2482 49.4999 27.093 49.4999 22.2931H48.4999ZM37.2295 11.0227C43.454 11.0227 48.4999 16.0686 48.4999 22.2931H49.4999C49.4999 15.5163 44.0063 10.0227 37.2295 10.0227V11.0227ZM23.4298 11.0227H37.2295V10.0227H23.4298V11.0227Z" fill="#0090DF"/>
<rect x="19.7771" y="20.2637" width="3.247" height="3.247" fill="#0090DF"/>
<rect x="28.7061" y="20.2637" width="3.247" height="3.247" fill="#0090DF"/>
<rect x="37.6355" y="20.2637" width="3.247" height="3.247" fill="#0090DF"/>
<path fill-rule="evenodd" clip-rule="evenodd" d="M30.2755 36.985C29.0373 37.6996 27.6005 38.1084 26.0681 38.1084H17.3419H17.1905L17.0646 38.1924L12.3627 41.327V38.3769V37.9797L11.9759 37.8898C8.24345 37.0225 5.46265 33.675 5.46265 29.6792C5.46265 26.7122 6.99553 24.1033 9.31253 22.6011C9.41925 22.1304 9.55418 21.6704 9.71546 21.223C6.60291 22.7631 4.46265 25.9712 4.46265 29.6792C4.46265 34.0112 7.38348 37.6598 11.3627 38.7652V42.2612V43.1955L12.1401 42.6772L17.4933 39.1084H26.0681C28.3297 39.1084 30.4052 38.3123 32.0298 36.985H30.2755Z" fill="#0090DF"/>
</svg>
