<svg width="70" height="70" viewBox="0 0 70 70" fill="none" xmlns="http://www.w3.org/2000/svg">
<path d="M48.7472 43.6073L49.3019 42.7752L49.0349 42.5972L48.7142 42.6078L48.7472 43.6073ZM54.9959 47.7731L54.4412 48.6051L55.9959 49.6416V47.7731H54.9959ZM54.9959 42.0205L54.5471 41.1269L53.9959 41.4038V42.0205H54.9959ZM16.5 28.5446C16.5 20.7733 22.7998 14.4735 30.5711 14.4735V12.4735C21.6953 12.4735 14.5 19.6688 14.5 28.5446H16.5ZM30.5711 42.6156C22.7998 42.6156 16.5 36.3158 16.5 28.5446H14.5C14.5 37.4204 21.6953 44.6156 30.5711 44.6156V42.6156ZM48.2406 42.6156H30.5711V44.6156H48.2406V42.6156ZM48.7142 42.6078C48.557 42.613 48.3991 42.6156 48.2406 42.6156V44.6156C48.4211 44.6156 48.601 44.6127 48.7802 44.6067L48.7142 42.6078ZM55.5506 46.941L49.3019 42.7752L48.1925 44.4393L54.4412 48.6051L55.5506 46.941ZM53.9959 42.0205V47.7731H55.9959V42.0205H53.9959ZM62.3117 28.5446C62.3117 34.0467 59.1538 38.8131 54.5471 41.1269L55.4447 42.9142C60.701 40.2741 64.3117 34.8319 64.3117 28.5446H62.3117ZM48.2406 14.4735C56.0118 14.4735 62.3117 20.7733 62.3117 28.5446H64.3117C64.3117 19.6688 57.1164 12.4735 48.2406 12.4735V14.4735ZM30.5711 14.4735H48.2406V12.4735H30.5711V14.4735Z" fill="#0090DF"/>
<rect x="25.8945" y="25.9462" width="4.15754" height="4.15754" fill="#0090DF"/>
<rect x="37.3267" y="25.9462" width="4.15754" height="4.15754" fill="#0090DF"/>
<rect x="48.7607" y="25.9462" width="4.15754" height="4.15754" fill="#0090DF"/>
<path fill-rule="evenodd" clip-rule="evenodd" d="M38.5747 47.3563C37.1808 48.0469 35.6103 48.435 33.9493 48.435H22.7759H22.4731L22.2212 48.603L16.76 52.2437V49.1385V48.3442L15.9864 48.1644C11.3668 47.0908 7.92529 42.947 7.92529 38.0018C7.92529 34.5041 9.64645 31.4084 12.288 29.5155C12.4313 28.5738 12.6651 27.6618 12.9803 26.7888C8.80656 28.7944 5.92529 33.0616 5.92529 38.0018C5.92529 43.6181 9.64828 48.3627 14.76 49.9061V54.1123V55.9808L16.3147 54.9443L23.0786 50.435H33.9493C37.0864 50.435 39.9522 49.2732 42.1397 47.3563H38.5747Z" fill="#0090DF"/>
</svg>
