<svg width="54" height="54" viewBox="0 0 54 54" fill="none" xmlns="http://www.w3.org/2000/svg">
<mask id="path-1-inside-1_95_420" fill="white">
<path fill-rule="evenodd" clip-rule="evenodd" d="M48.5455 14H6V21.0909C9.2635 21.0909 11.9091 23.7365 11.9091 27C11.9091 30.2635 9.2635 32.9091 6 32.9091V40H48.5455V14Z"/>
</mask>
<path d="M6 14V13H5V14H6ZM48.5455 14H49.5455V13H48.5455V14ZM6 21.0909H5V22.0909H6V21.0909ZM6 32.9091V31.9091H5V32.9091H6ZM6 40H5V41H6V40ZM48.5455 40V41H49.5455V40H48.5455ZM6 15H48.5455V13H6V15ZM7 21.0909V14H5V21.0909H7ZM6 22.0909C8.71122 22.0909 10.9091 24.2888 10.9091 27H12.9091C12.9091 23.1842 9.81579 20.0909 6 20.0909V22.0909ZM10.9091 27C10.9091 29.7112 8.71122 31.9091 6 31.9091V33.9091C9.81579 33.9091 12.9091 30.8158 12.9091 27H10.9091ZM7 40V32.9091H5V40H7ZM48.5455 39H6V41H48.5455V39ZM47.5455 14V40H49.5455V14H47.5455Z" fill="#0090DF" mask="url(#path-1-inside-1_95_420)"/>
<path d="M29.1841 29.04C27.3725 29.04 26.0908 27.5485 26.0908 25.04C26.0908 22.5316 27.3725 21.0909 29.1841 21.0909C30.9956 21.0909 32.2773 22.5316 32.2773 25.04C32.2773 27.5485 30.9956 29.04 29.1841 29.04ZM29.1841 27.6333C29.9189 27.6333 30.4829 26.8705 30.4829 25.04C30.4829 23.1926 29.9189 22.4977 29.1841 22.4977C28.4321 22.4977 27.8681 23.1926 27.8681 25.04C27.8681 26.8705 28.4321 27.6333 29.1841 27.6333ZM29.5942 34.0909L36.4643 21.0909H37.9682L31.081 34.0909H29.5942ZM38.3783 34.0909C36.5839 34.0909 35.3022 32.6163 35.3022 30.0909C35.3022 27.5824 36.5839 26.1248 38.3783 26.1248C40.1727 26.1248 41.4545 27.5824 41.4545 30.0909C41.4545 32.6163 40.1727 34.0909 38.3783 34.0909ZM38.3783 32.6841C39.1132 32.6841 39.6942 31.9383 39.6942 30.0909C39.6942 28.2434 39.1132 27.5485 38.3783 27.5485C37.6435 27.5485 37.0624 28.2434 37.0624 30.0909C37.0624 31.9383 37.6435 32.6841 38.3783 32.6841Z" fill="#0090DF"/>
<line x1="20.6819" y1="14" x2="20.6819" y2="18.7273" stroke="#0090DF"/>
<line x1="20.6819" y1="21.0909" x2="20.6819" y2="25.8182" stroke="#0090DF"/>
<line x1="20.6819" y1="28.1818" x2="20.6819" y2="32.9091" stroke="#0090DF"/>
<line x1="20.6819" y1="35.2727" x2="20.6819" y2="40" stroke="#0090DF"/>
</svg>
